<?xml version="1.0" encoding="utf-8"?>
<!-- Generator: Adobe Illustrator 27.5.0, SVG Export Plug-In . SVG Version: 6.00 Build 0)  -->
<svg version="1.1" xmlns="http://www.w3.org/2000/svg" xmlns:xlink="http://www.w3.org/1999/xlink" x="0px" y="0px"
	 viewBox="0 0 750 500" style="enable-background:new 0 0 750 500;" xml:space="preserve">
<g id="BACKGROUND">
	<rect style="fill:#FFFFFF;" width="750" height="500"/>
</g>
<g id="OBJECTS">
	<g>
		<path style="fill:#FFF8E6;" d="M608.753,439.141c18.603-36.06,29.115-76.975,29.115-120.347
			c0-145.177-117.69-262.867-262.867-262.867c-145.178,0-262.867,117.69-262.867,262.867c0,43.372,10.511,84.287,29.115,120.347
			H608.753z"/>
		<path style="fill:#FFF8E6;" d="M618.288,439.058l-0.899-0.439c17.981-36.897,27.098-76.563,27.098-117.895
			c0-71.982-28.032-139.657-78.931-190.556C514.657,79.269,446.983,51.237,375,51.237c-71.983,0-139.657,28.032-190.556,78.931
			c-50.899,50.899-78.931,118.574-78.931,190.556c0,41.272,9.091,80.884,27.021,117.738l-0.899,0.438
			c-17.997-36.991-27.122-76.751-27.122-118.176c0-72.25,28.136-140.175,79.224-191.263C234.825,78.373,302.75,50.237,375,50.237
			s140.175,28.136,191.263,79.224c51.088,51.088,79.224,119.013,79.224,191.263C645.487,362.21,636.336,402.023,618.288,439.058z"/>
		
			<rect x="134.369" y="375.291" transform="matrix(0.8873 -0.4612 0.4612 0.8873 -173.6461 108.3418)" style="fill:#FFFFFF;" width="1" height="68.4"/>
		
			<rect x="137.968" y="336.411" transform="matrix(0.8873 -0.4612 0.4612 0.8873 -164.8109 107.9419)" style="fill:#FFFFFF;" width="1" height="109.602"/>
		
			<rect x="143.997" y="307.476" transform="matrix(0.8873 -0.4612 0.4612 0.8873 -157.8575 109.1889)" style="fill:#FFFFFF;" width="1" height="140.264"/>
		
			<rect x="151.18" y="283.262" transform="matrix(0.8873 -0.4612 0.4612 0.8873 -151.7989 111.2193)" style="fill:#FFFFFF;" width="1" height="165.924"/>
		
			<rect x="159.101" y="262.071" transform="matrix(0.8873 -0.4612 0.4612 0.8873 -146.3111 113.7489)" style="fill:#FFFFFF;" width="1" height="188.38"/>
		
			<rect x="167.556" y="243.064" transform="matrix(0.8873 -0.4612 0.4612 0.8873 -141.2371 116.6408)" style="fill:#FFFFFF;" width="1" height="208.522"/>
		
			<rect x="176.425" y="225.749" transform="matrix(0.8873 -0.4612 0.4612 0.8873 -136.4839 119.8138)" style="fill:#FFFFFF;" width="1" height="226.871"/>
		
			<rect x="185.629" y="209.809" transform="matrix(0.8873 -0.4612 0.4612 0.8873 -131.9904 123.2136)" style="fill:#FFFFFF;" width="1" height="243.762"/>
		
			<rect x="195.116" y="195.025" transform="matrix(0.8873 -0.4612 0.4612 0.8873 -127.7165 126.8062)" style="fill:#FFFFFF;" width="1" height="259.429"/>
		
			<rect x="204.846" y="181.24" transform="matrix(0.8873 -0.4612 0.4612 0.8873 -123.6309 130.5631)" style="fill:#FFFFFF;" width="1" height="274.037"/>
		
			<rect x="214.793" y="168.336" transform="matrix(0.8873 -0.4612 0.4612 0.8873 -119.7121 134.4663)" style="fill:#FFFFFF;" width="1" height="287.712"/>
		
			<rect x="224.932" y="156.223" transform="matrix(0.8873 -0.4612 0.4612 0.8873 -115.9434 138.5006)" style="fill:#FFFFFF;" width="1" height="300.548"/>
		
			<rect x="235.248" y="144.832" transform="matrix(0.8873 -0.4612 0.4612 0.8873 -112.3114 142.655)" style="fill:#FFFFFF;" width="1" height="312.619"/>
		
			<rect x="245.727" y="134.107" transform="matrix(0.8873 -0.4612 0.4612 0.8873 -108.805 146.9189)" style="fill:#FFFFFF;" width="1" height="323.984"/>
		
			<rect x="256.358" y="124.005" transform="matrix(0.8873 -0.4612 0.4612 0.8873 -105.4169 151.2868)" style="fill:#FFFFFF;" width="1" height="334.69"/>
		
			<rect x="267.132" y="114.49" transform="matrix(0.8873 -0.4612 0.4612 0.8873 -102.1396 155.7509)" style="fill:#FFFFFF;" width="1" height="344.772"/>
		
			<rect x="278.043" y="105.535" transform="matrix(0.8873 -0.4612 0.4612 0.8873 -98.9684 160.3086)" style="fill:#FFFFFF;" width="1" height="354.263"/>
		
			<rect x="289.085" y="97.116" transform="matrix(0.8873 -0.4612 0.4612 0.8873 -95.8988 164.9548)" style="fill:#FFFFFF;" width="1" height="363.184"/>
		
			<rect x="300.255" y="89.217" transform="matrix(0.8873 -0.4612 0.4612 0.8873 -92.9274 169.6871)" style="fill:#FFFFFF;" width="1" height="371.555"/>
		
			<rect x="311.548" y="81.824" transform="matrix(0.8873 -0.4612 0.4612 0.8873 -90.052 174.5034)" style="fill:#FFFFFF;" width="1" height="379.389"/>
		
			<rect x="322.962" y="74.927" transform="matrix(0.8873 -0.4612 0.4612 0.8873 -87.2705 179.4021)" style="fill:#FFFFFF;" width="1" height="386.698"/>
		
			<rect x="334.496" y="68.522" transform="matrix(0.8873 -0.4612 0.4612 0.8873 -84.5818 184.3816)" style="fill:#FFFFFF;" width="1" height="393.486"/>
		
			<rect x="346.149" y="62.603" transform="matrix(0.8873 -0.4612 0.4612 0.8873 -81.9854 189.4419)" style="fill:#FFFFFF;" width="1" height="399.758"/>
		
			<rect x="357.921" y="57.17" transform="matrix(0.8873 -0.4612 0.4612 0.8873 -79.481 194.5831)" style="fill:#FFFFFF;" width="1" height="405.515"/>
		
			<rect x="369.812" y="52.227" transform="matrix(0.8873 -0.4612 0.4612 0.8873 -77.0692 199.805)" style="fill:#FFFFFF;" width="1" height="410.753"/>
		
			<rect x="381.825" y="47.779" transform="matrix(0.8873 -0.4612 0.4612 0.8873 -74.7512 205.1096)" style="fill:#FFFFFF;" width="1" height="415.467"/>
		
			<rect x="393.96" y="43.834" transform="matrix(0.8873 -0.4612 0.4612 0.8873 -72.5282 210.4965)" style="fill:#FFFFFF;" width="1" height="419.648"/>
		
			<rect x="406.221" y="40.402" transform="matrix(0.8873 -0.4612 0.4612 0.8873 -70.4024 215.9691)" style="fill:#FFFFFF;" width="1" height="423.285"/>
		
			<rect x="418.611" y="37.498" transform="matrix(0.8873 -0.4612 0.4612 0.8873 -68.3768 221.5291)" style="fill:#FFFFFF;" width="1" height="426.361"/>
		
			<rect x="431.134" y="35.142" transform="matrix(0.8873 -0.4612 0.4612 0.8873 -66.4546 227.1799)" style="fill:#FFFFFF;" width="1" height="428.859"/>
		
			<rect x="443.796" y="33.353" transform="matrix(0.8873 -0.4612 0.4612 0.8873 -64.64 232.9246)" style="fill:#FFFFFF;" width="1" height="430.754"/>
		
			<rect x="456.604" y="32.159" transform="matrix(0.8873 -0.4612 0.4612 0.8873 -62.9378 238.7679)" style="fill:#FFFFFF;" width="1" height="432.019"/>
		
			<rect x="469.565" y="31.594" transform="matrix(0.8873 -0.4612 0.4612 0.8873 -61.3547 244.7153)" style="fill:#FFFFFF;" width="1" height="432.618"/>
		
			<rect x="482.688" y="31.691" transform="matrix(0.8873 -0.4612 0.4612 0.8873 -59.8969 250.7725)" style="fill:#FFFFFF;" width="1" height="432.516"/>
		
			<rect x="495.988" y="32.511" transform="matrix(0.8873 -0.4612 0.4612 0.8873 -58.5759 256.9488)" style="fill:#FFFFFF;" width="1" height="431.647"/>
		
			<rect x="509.333" y="34.163" transform="matrix(0.8873 -0.4612 0.4612 0.8873 -57.2898 263.1568)" style="fill:#FFFFFF;" width="1" height="429.286"/>
		
			<rect x="519.612" y="37.511" transform="matrix(0.8873 -0.4612 0.4612 0.8873 -53.6292 267.2855)" style="fill:#FFFFFF;" width="1" height="411.739"/>
		
			<rect x="529.923" y="41.927" transform="matrix(0.8873 -0.4612 0.4612 0.8873 -49.9933 271.4364)" style="fill:#FFFFFF;" width="1" height="392.178"/>
		
			<rect x="540.234" y="47.594" transform="matrix(0.8873 -0.4612 0.4612 0.8873 -46.3573 275.587)" style="fill:#FFFFFF;" width="1" height="370.115"/>
		
			<rect x="550.545" y="54.755" transform="matrix(0.8873 -0.4612 0.4612 0.8873 -42.721 279.7364)" style="fill:#FFFFFF;" width="1" height="345.061"/>
		
			<rect x="560.855" y="63.766" transform="matrix(0.8873 -0.4612 0.4612 0.8873 -39.0841 283.8869)" style="fill:#FFFFFF;" width="1" height="316.305"/>
		
			<rect x="571.165" y="75.186" transform="matrix(0.8873 -0.4612 0.4612 0.8873 -35.4468 288.0368)" style="fill:#FFFFFF;" width="1" height="282.729"/>
		
			<rect x="581.494" y="90.001" transform="matrix(0.8873 -0.4612 0.4612 0.8873 -31.8248 292.1988)" style="fill:#FFFFFF;" width="1" height="242.438"/>
		
			<rect x="591.815" y="110.328" transform="matrix(0.8873 -0.4612 0.4612 0.8873 -28.1967 296.3582)" style="fill:#FFFFFF;" width="1" height="191.095"/>
		
			<rect x="602.178" y="143.053" transform="matrix(0.8873 -0.4612 0.4612 0.8873 -24.6015 300.5435)" style="fill:#FFFFFF;" width="1" height="115.117"/>
	</g>
	<g>
		
			<ellipse transform="matrix(0.1575 -0.9875 0.9875 0.1575 348.0437 736.5635)" style="fill:#A1DBC9;" cx="605.693" cy="164.307" rx="54.781" ry="54.781"/>
		<polygon style="fill:#A1DBC9;" points="572.148,203.757 561.624,234.418 586.631,210.403 		"/>
	</g>
	<path style="fill:#682E2B;" d="M414.06,435.072H250.965c-10.995,0-20.358-7.997-22.077-18.857l-28.7-181.322
		c-2.148-13.569,8.339-25.846,22.077-25.846H385.36c10.995,0,20.358,7.997,22.077,18.857l28.7,181.322
		C438.285,422.796,427.798,435.072,414.06,435.072z"/>
	<g>
		<g>
			<path style="fill:#A74602;" d="M421.954,126.256L359.946,103.4c-9.191-3.388-18.931,3.463-18.851,13.258l0.142,17.194
				c0.048,5.825,3.696,11.012,9.162,13.027l28.481,10.498L421.954,126.256z"/>
			<path style="fill:#FEC200;" d="M374.472,159.886l99.348,60.01c15.826,7.47,34.737,1.936,44.041-12.886v0
				c10.537-16.788,4.832-38.979-12.495-48.604l-105.536-46.823L374.472,159.886z"/>
			
				<rect x="375.441" y="145.976" transform="matrix(0.462 -0.8869 0.8869 0.462 85.4954 433.8798)" style="fill:#FFFFFF;" width="49.813" height="1"/>
			<path style="fill:#FFFFFF;" d="M385.569,160.632c-2.076,0-3.764-1.688-3.764-3.764c0-2.076,1.688-3.764,3.764-3.764
				c2.076,0,3.764,1.689,3.764,3.764C389.333,158.943,387.645,160.632,385.569,160.632z M385.569,154.104
				c-1.524,0-2.764,1.24-2.764,2.764c0,1.524,1.24,2.764,2.764,2.764c1.524,0,2.764-1.24,2.764-2.764
				C388.333,155.344,387.093,154.104,385.569,154.104z"/>
		</g>
		<circle style="fill:#682E2B;" cx="333.644" cy="132.307" r="56.936"/>
		<polygon style="fill:#A74602;" points="368.678,239.545 365.685,152.917 306.658,152.917 309.651,239.402 		"/>
		<path style="fill:#8C3900;" d="M367.093,193.66l-1.408-40.742h-59.027l1.473,42.569
			C321.397,207.289,348.057,207.014,367.093,193.66z"/>
		<path style="fill:#FEC200;" d="M260.005,224.608l48.916-9.456h59.254l74.103-1.237l-3.882,205.037H266.533l-12.908-103.29
			l-47.903-41.486C213.203,248.851,234.107,229.762,260.005,224.608z"/>
		<path style="fill:#FEC200;" d="M208.456,267.07l-50.131,105.55c-7.015,14.862-1.818,32.621,12.101,41.358h0
			c15.765,9.895,36.605,4.538,45.643-11.734l52.113-93.818L208.456,267.07z"/>
		<path style="fill:#FEC200;" d="M517.857,167.393c-11.292-12.756-30.353-15.018-44.318-5.26l-75.745,53.272
			c-13.448,9.446-6.688,19.401,1.087,33.88l0,0c8.806,16.398,19.672,41.863,35.577,32.193l81.826-70.936
			C528.232,198.879,528.924,179.893,517.857,167.393L517.857,167.393z"/>
		<g>
			<path style="fill:#A74602;" d="M345.539,199.261L345.539,199.261c20.806-2.014,36.04-20.513,34.026-41.319l-3.028-31.28
				c-2.014-20.806-20.513-36.04-41.318-34.026h0c-20.806,2.014-36.04,20.513-34.026,41.319l3.028,31.28
				C306.235,186.041,324.734,201.275,345.539,199.261z"/>
			
				<ellipse transform="matrix(0.2859 -0.9583 0.9583 0.2859 72.2803 397.4032)" style="fill:#A74602;" cx="302.766" cy="150.207" rx="15.918" ry="15.918"/>
			
				<ellipse transform="matrix(0.2064 -0.9785 0.9785 0.2064 154.9109 477.9875)" style="fill:#A74602;" cx="372.127" cy="143.494" rx="15.918" ry="15.918"/>
			<path style="fill:#682E2B;" d="M301.023,158.452c-3.617-0.764-6.286-3.751-6.643-7.433c-0.255-2.643,0.77-5.285,2.741-7.067
				l0.671,0.742c-1.738,1.571-2.642,3.9-2.417,6.229c0.314,3.245,2.667,5.877,5.854,6.551L301.023,158.452z"/>
			<g>
				<path style="fill:#682E2B;" d="M354.473,131.023c0.117,1.206,2.845,1.928,6.093,1.614c3.248-0.314,5.787-1.547,5.671-2.752
					s-2.845-1.928-6.093-1.614C356.895,128.585,354.356,129.817,354.473,131.023z"/>
				<path style="fill:#682E2B;" d="M325.097,133.866c0.117,1.206,2.845,1.928,6.093,1.614c3.249-0.314,5.787-1.547,5.671-2.752
					c-0.117-1.206-2.845-1.928-6.093-1.614C327.519,131.428,324.98,132.661,325.097,133.866z"/>
				<path style="fill:#682E2B;" d="M347.186,161.033c-3.022,0-5.942-1.011-8.34-2.908l0.62-0.784c2.542,2.01,5.72,2.945,8.939,2.633
					l6.008-0.581l0.097,0.995l-6.008,0.582C348.062,161.011,347.622,161.033,347.186,161.033z"/>
				
					<rect x="347.112" y="140.406" transform="matrix(0.9953 -0.0964 0.0964 0.9953 -12.3565 34.1688)" style="fill:#682E2B;" width="1" height="9.239"/>
				<path style="fill:#682E2B;" d="M326.925,145.991c-0.135-1.398,0.282-2.765,1.174-3.849c0.893-1.084,2.154-1.755,3.552-1.891
					c2.891-0.277,5.46,1.841,5.74,4.726l-0.995,0.097c-0.11-1.132-0.654-2.154-1.532-2.876c-0.877-0.724-1.988-1.062-3.116-0.951
					c-1.132,0.109-2.154,0.653-2.877,1.531c-0.723,0.878-1.061,1.985-0.951,3.117L326.925,145.991z"/>
				<path style="fill:#682E2B;" d="M356.301,143.148c-0.279-2.886,1.841-5.461,4.727-5.74c1.398-0.138,2.765,0.282,3.849,1.174
					c1.084,0.893,1.755,2.154,1.891,3.552l-0.995,0.097c-0.109-1.132-0.653-2.154-1.531-2.876c-0.878-0.723-1.989-1.064-3.117-0.951
					c-2.337,0.226-4.054,2.311-3.828,4.648L356.301,143.148z"/>
				<g>
					<path style="fill:#FEC200;" d="M324.38,156.62c-8.96,0-16.649-6.829-17.529-15.927c-0.937-9.673,6.171-18.304,15.844-19.24
						c9.675-0.94,18.305,6.171,19.241,15.844c0.937,9.673-6.171,18.304-15.844,19.24C325.517,156.592,324.946,156.62,324.38,156.62z
						 M324.424,122.368c-0.542,0-1.086,0.026-1.632,0.079c-9.124,0.883-15.829,9.024-14.946,18.148
						c0.883,9.124,9.027,15.822,18.149,14.946c4.42-0.428,8.409-2.551,11.232-5.979c2.823-3.428,4.142-7.749,3.714-12.169
						c-0.428-4.42-2.551-8.409-5.98-11.232C331.957,123.688,328.266,122.368,324.424,122.368z"/>
					<path style="fill:#FEC200;" d="M367.731,152.424c-8.96,0-16.649-6.829-17.529-15.927c-0.937-9.673,6.171-18.304,15.844-19.24
						c9.672-0.936,18.305,6.171,19.241,15.844c0.937,9.673-6.171,18.304-15.844,19.24
						C368.867,152.397,368.297,152.424,367.731,152.424z M367.756,118.173c-0.534,0-1.071,0.026-1.614,0.078
						c-4.42,0.428-8.409,2.551-11.232,5.979c-2.823,3.428-4.142,7.75-3.714,12.169c0.428,4.42,2.551,8.409,5.979,11.231
						c3.428,2.823,7.753,4.142,12.169,3.714c9.124-0.883,15.829-9.024,14.946-18.148
						C383.461,124.615,376.207,118.173,367.756,118.173z"/>
					<path style="fill:#FEC200;" d="M341.773,136.942l-0.806-0.593c1.01-1.374,2.634-2.299,4.454-2.539
						c1.984-0.265,3.946,0.288,5.522,1.548l-0.625,0.781c-1.361-1.089-3.055-1.565-4.767-1.338
						C344.001,135.006,342.624,135.786,341.773,136.942z"/>
				</g>
			</g>
		</g>
		<path style="fill:#FEC200;" d="M333.715,220.17h-28.458v-13.695h16.555c5.256,0,9.793,3.681,10.876,8.824L333.715,220.17z"/>
		<path style="fill:#FEC200;" d="M370.46,220.17h-22.683v-5.031c0-4.785,3.879-8.664,8.664-8.664h13.885L370.46,220.17z"/>
		
			<rect x="347.637" y="214.133" transform="matrix(0.9887 -0.15 0.15 0.9887 -43.6279 55.8054)" style="fill:#FFFFFF;" width="1" height="205.984"/>
		
			<rect x="362.849" y="214.182" transform="matrix(0.9892 -0.1469 0.1469 0.9892 -42.6308 56.796)" style="fill:#FFFFFF;" width="1" height="205.886"/>
		<g>
			<path style="fill:#A74602;" d="M281.214,318.072l3.956-8.575c1.707-3.7,4.814-6.571,8.638-7.98l15.093-5.563l5.426,14.721
				L281.214,318.072z"/>
			<g>
				<path style="fill:#FFFFFF;" d="M362.498,267.402l-5.325,68.517c-0.242,2.584-2.407,4.562-5.003,4.568l-41.167,0.105
					c-2.595,0.007-4.771-1.96-5.026-4.543l-5.676-68.489L362.498,267.402z"/>
				<polygon style="fill:#E89C9C;" points="303.557,325.364 300.349,286.658 362.547,286.498 359.537,325.221 				"/>
				<path style="fill:#682E2B;" d="M299.751,273.985l63.329-0.162c1.057-0.003,1.84-0.982,1.611-2.013l-1.092-4.917
					c-0.169-0.759-0.842-1.298-1.619-1.296l-61.169,0.156c-0.777,0.002-1.448,0.545-1.613,1.304l-1.067,4.922
					C297.906,273.012,298.695,273.987,299.751,273.985z"/>
				<path style="fill:#682E2B;" d="M307.646,268.509l47.511-0.122c1.141-0.003,1.986-1.06,1.739-2.173l-1.968-8.894
					c-0.182-0.819-0.909-1.401-1.748-1.399l-43.62,0.112c-0.839,0.002-1.563,0.588-1.741,1.408l-1.923,8.904
					C305.654,267.46,306.505,268.512,307.646,268.509z"/>
				
					<rect x="305.867" y="265.135" transform="matrix(1 -0.0039 0.0039 1 -1.0334 1.2941)" style="fill:#FEC200;" width="50.878" height="1"/>
			</g>
			<path style="fill:#A74602;" d="M257.685,322l62.008-22.856c9.191-3.388,18.931,3.463,18.851,13.258l-0.142,17.194
				c-0.048,5.825-3.696,11.012-9.162,13.027l-28.481,10.498L257.685,322z"/>
			<path style="fill:#FEC200;" d="M305.167,355.63l-99.348,60.01c-15.826,7.47-34.737,1.936-44.04-12.886l0,0
				c-10.537-16.788-4.832-38.979,12.495-48.604l105.536-46.823L305.167,355.63z"/>
			
				<rect x="179.199" y="328.144" transform="matrix(0.9142 -0.4053 0.4053 0.9142 -113.3169 122.1474)" style="fill:#FFFFFF;" width="105.126" height="1"/>
			
				<rect x="263.615" y="366.706" transform="matrix(0.8563 -0.5165 0.5165 0.8563 -148.5553 200.4823)" style="fill:#FFFFFF;" width="44.777" height="1"/>
			
				<rect x="277.93" y="317.497" transform="matrix(0.8866 -0.4625 0.4625 0.8866 -126.8647 167.6134)" style="fill:#FFFFFF;" width="1" height="50.122"/>
			<path style="fill:#FFFFFF;" d="M293.641,356.682c-1.839,0-3.334-1.496-3.334-3.335c0-1.839,1.496-3.335,3.334-3.335
				c1.839,0,3.335,1.496,3.335,3.335C296.975,355.186,295.48,356.682,293.641,356.682z M293.641,351.013
				c-1.287,0-2.334,1.047-2.334,2.335c0,1.288,1.047,2.335,2.334,2.335c1.287,0,2.335-1.047,2.335-2.335
				C295.975,352.06,294.928,351.013,293.641,351.013z"/>
		</g>
		<circle style="fill:#FFFFFF;" cx="341.526" cy="221.066" r="2.285"/>
		<path style="fill:#FFFFFF;" d="M362.64,351.219c0,1.262-1.023,2.285-2.285,2.285c-1.262,0-2.285-1.023-2.285-2.285
			c0-1.262,1.023-2.285,2.285-2.285C361.617,348.934,362.64,349.957,362.64,351.219z"/>
		<path style="fill:#FFFFFF;" d="M372.745,412.73c0,1.262-1.023,2.285-2.285,2.285c-1.262,0-2.285-1.023-2.285-2.285
			c0-1.262,1.023-2.285,2.285-2.285C371.722,410.445,372.745,411.468,372.745,412.73z"/>
		<rect x="305.257" y="214.904" style="fill:#FFFFFF;" width="22.985" height="1"/>
		<rect x="359.595" y="214.904" style="fill:#FFFFFF;" width="10.864" height="1"/>
		
			<rect x="443.204" y="181.806" transform="matrix(0.2249 -0.9744 0.9744 0.2249 152.5351 584.556)" style="fill:#FFFFFF;" width="1" height="29.184"/>
		<path style="fill:#682E2B;" d="M365.541,95.91c0.372,5.44-11.971,10.715-27.569,11.782c-15.598,1.067-28.544-2.479-28.917-7.919
			c-0.372-5.44,11.971-10.715,27.569-11.782C352.223,86.925,365.169,90.47,365.541,95.91z"/>
	</g>
	<g>
		<path style="fill:#682E2B;" d="M372.745,405.67c0.16,7.815,6.3,14.102,13.865,14.102h192.285c7.565,0,13.705-6.287,13.865-14.102
			H372.745z"/>
		<path style="fill:#99C8DC;" d="M637.914,405.67H428.881c-5.799,0-10.059-5.444-8.664-11.073l33.853-136.62
			c1.441-5.817,6.663-9.902,12.656-9.902h209.346c5.641,0,9.783,5.295,8.427,10.77L650.57,395.768
			C649.129,401.585,643.907,405.67,637.914,405.67z"/>
		<path style="fill:#682E2B;" d="M428.352,394.597l33.853-136.62c1.441-5.817,6.663-9.902,12.656-9.902h-8.136
			c-5.993,0-11.214,4.085-12.656,9.902l-33.853,136.62c-1.395,5.629,2.865,11.073,8.664,11.073h8.136
			C431.217,405.67,426.957,400.226,428.352,394.597z"/>
		<path style="fill:#99C8DC;" d="M427.675,405.67c0.16,7.815,6.3,14.102,13.865,14.102h192.285c7.565,0,13.705-6.287,13.865-14.102
			H427.675z"/>
		<rect x="437.016" y="405.17" style="fill:#FFFFFF;" width="200.898" height="1"/>
		<path style="fill:#FFFFFF;" d="M675.633,260.837c-2.07,0-3.754-1.684-3.754-3.754c0-2.07,1.684-3.754,3.754-3.754
			c2.07,0,3.754,1.684,3.754,3.754C679.388,259.153,677.704,260.837,675.633,260.837z M675.633,254.329
			c-1.519,0-2.754,1.235-2.754,2.754c0,1.519,1.236,2.754,2.754,2.754c1.519,0,2.754-1.236,2.754-2.754
			C678.388,255.564,677.152,254.329,675.633,254.329z"/>
	</g>
	<g>
		<g>
			<path style="fill:#A1DBC9;" d="M157.067,257.171c0,41.306-27.205,74.792-27.205,74.792s-27.205-33.485-27.205-74.792
				s27.205-74.792,27.205-74.792S157.067,215.864,157.067,257.171z"/>
			<path style="fill:#A1DBC9;" d="M146.974,329.279c0,0-11.15-33.783,3.675-57.865c14.824-24.082,50.009-29.342,50.009-29.342
				L146.974,329.279z"/>
			<path style="fill:#FFFFFF;" d="M142.664,308.224c-1.018-14.797,1.525-27.27,7.559-37.072c1.74-2.828,3.853-5.539,6.277-8.06
				l0.721,0.693c-2.376,2.469-4.443,5.124-6.146,7.891c-5.922,9.621-8.416,21.893-7.413,36.479L142.664,308.224z"/>
			<path style="fill:#A1DBC9;" d="M58.306,260.046c0,0,35.489-2.488,55.179,17.809c19.69,20.297,16.126,55.694,16.126,55.694
				L58.306,260.046z"/>
			<path style="fill:#FFFFFF;" d="M127.656,308.645c-2.462-12.799-7.35-23.041-14.53-30.442c-2.817-2.903-6.137-5.504-9.868-7.729
				l0.513-0.858c3.806,2.27,7.195,4.925,10.073,7.892c7.317,7.543,12.295,17.956,14.795,30.95L127.656,308.645z"/>
			<rect x="129.362" y="192.71" style="fill:#FFFFFF;" width="1" height="116.395"/>
			
				<rect x="125.123" y="207.22" transform="matrix(0.5679 -0.8231 0.8231 0.5679 -120.5215 195.1789)" style="fill:#FFFFFF;" width="1" height="10.302"/>
			
				<rect x="119.591" y="238.558" transform="matrix(0.5679 -0.8231 0.8231 0.5679 -154.2394 207.073)" style="fill:#FFFFFF;" width="1" height="23.743"/>
			
				<rect x="128.397" y="225.166" transform="matrix(0.8231 -0.5679 0.5679 0.8231 -103.9694 117.5299)" style="fill:#FFFFFF;" width="16.576" height="1"/>
			
				<rect x="127.647" y="271.076" transform="matrix(0.8234 -0.5675 0.5675 0.8234 -129.363 127.5183)" style="fill:#FFFFFF;" width="25.049" height="1"/>
		</g>
		<g>
			<path style="fill:#E89C9C;" d="M113.662,357.66h33.778c14.204-6.436,24.09-20.726,24.09-37.335c0-7.03-1.773-13.646-4.892-19.428
				H94.464c-3.119,5.782-4.892,12.397-4.892,19.428C89.572,336.934,99.458,351.224,113.662,357.66z"/>
			<path style="fill:#E89C9C;" d="M162.788,368.781c-4.044-5.123-9.28-9.262-15.296-11.988h-33.778
				c-6.016,2.726-11.253,6.865-15.297,11.988H162.788z"/>
			<path style="fill:#FFFFFF;" d="M160.446,321.491c-0.135,0-0.264-0.055-0.358-0.151l-9.603-9.875l-9.604,9.875
				c-0.188,0.193-0.528,0.193-0.717,0l-9.604-9.875l-9.603,9.875c-0.188,0.193-0.528,0.193-0.717,0l-9.603-9.875l-9.604,9.875
				c-0.188,0.193-0.528,0.193-0.717,0l-9.968-10.25l0.717-0.697l9.609,9.882l9.563-9.833c0.053-0.068,0.123-0.124,0.205-0.157
				c0.188-0.078,0.404-0.038,0.546,0.108l9.609,9.882l9.562-9.833c0.053-0.068,0.123-0.124,0.205-0.157
				c0.188-0.078,0.404-0.038,0.546,0.108l9.61,9.882l9.563-9.833c0.053-0.068,0.122-0.124,0.205-0.157
				c0.188-0.078,0.404-0.038,0.546,0.108l9.609,9.882l9.597-9.869l0.717,0.697l-9.956,10.237
				C160.71,321.436,160.581,321.491,160.446,321.491z"/>
			<path style="fill:#FFFFFF;" d="M100.728,316.55l-4.882-4.882h9.764L100.728,316.55z M98.26,312.668l2.468,2.468l2.468-2.468
				H98.26z"/>
			<path style="fill:#FFFFFF;" d="M115.595,320.721h-9.764l4.882-4.882L115.595,320.721z M108.246,319.721h4.936l-2.468-2.468
				L108.246,319.721z"/>
			<path style="fill:#FFFFFF;" d="M135.436,320.721h-9.763l4.881-4.882L135.436,320.721z M128.087,319.721h4.935l-2.468-2.468
				L128.087,319.721z"/>
			<path style="fill:#FFFFFF;" d="M155.363,320.721h-9.764l4.882-4.882L155.363,320.721z M148.013,319.721h4.936l-2.468-2.468
				L148.013,319.721z"/>
			<polygon style="fill:#FFFFFF;" points="171.551,320.721 165.389,320.721 170.271,315.839 172.158,317.727 171.451,318.434 
				170.271,317.253 167.803,319.721 171.551,319.721 			"/>
			<polygon style="fill:#FFFFFF;" points="95.765,320.721 89.557,320.721 89.557,319.721 93.351,319.721 90.883,317.253 
				89.703,318.434 88.996,317.727 90.883,315.839 			"/>
			<path style="fill:#FFFFFF;" d="M120.582,316.55l-4.881-4.882h9.763L120.582,316.55z M118.115,312.668l2.467,2.468l2.468-2.468
				H118.115z"/>
			<path style="fill:#FFFFFF;" d="M140.566,316.55l-4.881-4.882h9.763L140.566,316.55z M138.099,312.668l2.467,2.468l2.468-2.468
				H138.099z"/>
			<path style="fill:#FFFFFF;" d="M160.535,316.55l-4.881-4.882h9.763L160.535,316.55z M158.068,312.668l2.467,2.468l2.468-2.468
				H158.068z"/>
			<rect x="112.842" y="356.7" style="fill:#FFFFFF;" width="35.578" height="1"/>
		</g>
	</g>
	<g>
		<g>
			<path style="fill:#99C8DC;" d="M146.863,394.981h78.57v-4.595H82.852c-8.103,0-14.672,6.569-14.672,14.671v0.02
				c0,8.115,6.579,14.694,14.694,14.694h142.559v-4.595h-78.57c-5.577,0-10.098-4.521-10.098-10.098
				C136.766,399.502,141.286,394.981,146.863,394.981z"/>
			<path style="fill:#FFFFFF;" d="M146.321,420.272c-8.378,0-15.194-6.816-15.194-15.194c0-8.386,6.806-15.192,15.171-15.192v1
				c-7.814,0-14.171,6.358-14.171,14.171c0,7.847,6.367,14.214,14.194,14.214V420.272z"/>
			<path style="fill:#FFFFFF;" d="M225.433,415.177h-78.57c-5.577,0-10.098-4.521-10.098-10.098l0,0
				c0-5.577,4.521-10.098,10.098-10.098h78.57V415.177z"/>
			<rect x="161.868" y="399.417" style="fill:#F9E8E8;" width="63.565" height="1"/>
			<rect x="186.63" y="411.103" style="fill:#F9E8E8;" width="38.803" height="1"/>
			<rect x="161.868" y="411.103" style="fill:#F9E8E8;" width="16.14" height="1"/>
			<rect x="136.765" y="403.615" style="fill:#F9E8E8;" width="70.458" height="1"/>
		</g>
		<g>
			<path style="fill:#A1DBC9;" d="M175.418,372.184h40.848v-3.403H69.172c-6.001,0-10.866,4.865-10.866,10.866v0.015
				c0,6.01,4.872,10.882,10.882,10.882h147.078v-3.403h-40.848c-4.13,0-7.478-3.348-7.478-7.478
				C167.94,375.533,171.288,372.184,175.418,372.184z"/>
			<path style="fill:#FFFFFF;" d="M175.017,391.044c-6.276,0-11.382-5.106-11.382-11.382c0-6.282,5.099-11.381,11.366-11.381v1
				c-5.716,0-10.366,4.65-10.366,10.366c0,5.74,4.658,10.397,10.382,10.397V391.044z"/>
			<path style="fill:#FFFFFF;" d="M216.266,387.141h-40.848c-4.13,0-7.478-3.348-7.478-7.478l0,0c0-4.13,3.348-7.478,7.478-7.478
				h40.848V387.141z"/>
			<rect x="186.531" y="375.339" style="fill:#F9E8E8;" width="29.736" height="1"/>
			<rect x="204.87" y="383.994" style="fill:#F9E8E8;" width="11.397" height="1"/>
			<rect x="186.531" y="383.994" style="fill:#F9E8E8;" width="11.953" height="1"/>
			<rect x="167.94" y="378.449" style="fill:#F9E8E8;" width="34.84" height="1"/>
		</g>
	</g>
	<rect x="39.389" y="419.453" style="fill:#682E2B;" width="671.223" height="20.244"/>
	<g>
		<rect x="509.837" y="385.661" style="fill:#E4F9F1;" width="116.381" height="33.792"/>
		<rect x="517.705" y="320.678" style="fill:#E4F9F1;" width="116.381" height="47.482"/>
		<rect x="503.256" y="368.161" style="fill:#E4F9F1;" width="116.381" height="17.517"/>
		<rect x="495.205" y="385.661" style="fill:#FFFFFF;" width="116.381" height="33.792"/>
		<rect x="503.073" y="320.678" style="fill:#FFFFFF;" width="116.381" height="47.482"/>
		<rect x="488.624" y="368.161" style="fill:#FFFFFF;" width="116.381" height="17.517"/>
		<rect x="503.073" y="367.661" style="fill:#E4F9F1;" width="101.932" height="1"/>
		<rect x="495.205" y="385.161" style="fill:#E4F9F1;" width="109.8" height="1"/>
		<polygon style="fill:#FFFFFF;" points="511.704,419.453 519.261,433.752 576.897,419.453 		"/>
		<rect x="511.704" y="418.953" style="fill:#E4F9F1;" width="65.192" height="1"/>
		<rect x="503.073" y="337.263" style="fill:#E4F9F1;" width="101.932" height="1"/>
		<rect x="517.705" y="355.494" style="fill:#E4F9F1;" width="101.932" height="1"/>
		<polygon style="fill:#E4F9F1;" points="597.028,337.763 591.99,344.419 560.484,337.763 		"/>
		<polygon style="fill:#E4F9F1;" points="503.073,385.677 508.906,394 554.966,385.661 		"/>
	</g>
	<g>
		<path style="fill:#FEC200;" d="M679.31,419.453h-74.027c-1.665,0-3.015-1.35-3.015-3.014l0,0c0-1.665,1.35-3.014,3.015-3.014
			h74.027c1.665,0,3.015,1.35,3.015,3.014l0,0C682.325,418.103,680.975,419.453,679.31,419.453z"/>
		<rect x="606.083" y="415.938" style="fill:#FFFFFF;" width="4.805" height="1"/>
		<rect x="612.651" y="415.938" style="fill:#FFFFFF;" width="4.805" height="1"/>
		<g>
			<path style="fill:#FEC200;" d="M671.126,406.241c-2.053-2.053-4.784-3.184-7.688-3.184c-2.904,0-5.635,1.131-7.688,3.184
				l-0.707-0.707c2.242-2.242,5.224-3.477,8.395-3.477c3.171,0,6.152,1.235,8.395,3.477L671.126,406.241z"/>
			<path style="fill:#FEC200;" d="M669.205,408.163c-1.541-1.54-3.588-2.388-5.766-2.388c-2.178,0-4.226,0.848-5.767,2.388
				l-0.707-0.707c1.729-1.729,4.028-2.681,6.474-2.681c2.445,0,4.744,0.952,6.473,2.681L669.205,408.163z"/>
			<path style="fill:#FEC200;" d="M667.265,410.103c-1.022-1.022-2.381-1.585-3.826-1.585s-2.805,0.563-3.827,1.585l-0.707-0.707
				c1.211-1.211,2.821-1.878,4.534-1.878s3.322,0.667,4.533,1.878L667.265,410.103z"/>
		</g>
	</g>
	<g>
		<path style="fill:#FFFFFF;" d="M605.96,139.349c-4.229-2.501-3.634-8.081-1.769-11.682c1.552-3.438,2.963-5.551,1.76-9.377
			c0,0,0.798-0.603,0.798-0.603c4.064,2.607,3.154,8.213,1.369,11.712c-1.546,3.441-2.688,5.535-1.378,9.322L605.96,139.349
			L605.96,139.349z"/>
		<path style="fill:#FFFFFF;" d="M596.617,139.349c-3.592-1.86-3.242-6.524-1.728-9.437c1.222-2.768,2.322-3.982,1.718-7.125
			l0.798-0.603c3.467,1.999,2.856,6.593,1.411,9.458c-1.203,2.766-2.105,3.952-1.421,7.079L596.617,139.349L596.617,139.349z"/>
		<path style="fill:#FFFFFF;" d="M614.64,139.349c-3.592-1.86-3.242-6.524-1.728-9.437c1.222-2.768,2.322-3.982,1.718-7.125
			l0.798-0.603c3.467,1.999,2.856,6.593,1.411,9.458c-1.203,2.766-2.105,3.952-1.421,7.079L614.64,139.349L614.64,139.349z"/>
	</g>
</g>
<g id="TEXT">
	<text transform="matrix(1 0 0 1 565.9286 158.9796)"><tspan x="0" y="0" style="fill:#FFFFFF; font-family:'TitanOne'; font-size:20.9069px;">coffee</tspan><tspan x="0.051" y="28.594" style="fill:#FFFFFF; font-family:'TitanOne'; font-size:31.7715px;">time</tspan></text>
</g>
</svg>
